<svg width="163" height="50" viewBox="0 0 163 50" fill="none" xmlns="http://www.w3.org/2000/svg">
<path d="M63.06 33.72C63.1 33.82 63.12 33.97 63.12 34.17C63.12 34.35 63.12 34.5 63.12 34.62C63.12 34.78 63.09 34.93 63.03 35.07C62.97 35.21 62.89 35.34 62.79 35.46C62.61 35.7 62.35 35.88 62.01 36C61.53 36.16 61.08 36.24 60.66 36.24C60.44 36.26 60.21 36.27 59.97 36.27C59.73 36.27 59.49 36.29 59.25 36.33H59.13C57.59 36.35 56 36.35 54.36 36.33C53.96 36.31 53.51 36.31 53.01 36.33C52.51 36.37 52.02 36.36 51.54 36.3C51.06 36.26 50.62 36.15 50.22 35.97C49.84 35.77 49.57 35.46 49.41 35.04C49.37 34.94 49.34 34.85 49.32 34.77C49.3 34.67 49.29 34.57 49.29 34.47C49.21 33.79 49.18 33.12 49.2 32.46C49.22 31.8 49.23 31.15 49.23 30.51L49.29 26.16V22.14C49.29 21.42 49.29 20.78 49.29 20.22C49.31 19.66 49.33 19.04 49.35 18.36V18.21C49.37 18.01 49.38 17.81 49.38 17.61C49.4 17.41 49.41 17.21 49.41 17.01C49.45 16.55 49.56 16.16 49.74 15.84C49.86 15.54 50.07 15.3 50.37 15.12C50.63 14.94 50.94 14.85 51.3 14.85C51.44 14.85 51.57 14.86 51.69 14.88C51.83 14.88 51.96 14.89 52.08 14.91C52.2 14.93 52.31 14.97 52.41 15.03C52.53 15.09 52.65 15.17 52.77 15.27C52.89 15.41 53 15.58 53.1 15.78C53.18 16 53.23 16.22 53.25 16.44C53.27 16.58 53.29 16.71 53.31 16.83C53.33 16.95 53.34 17.07 53.34 17.19C53.3 17.31 53.28 17.43 53.28 17.55C53.28 17.67 53.28 17.78 53.28 17.88V18.42L53.16 32.55L59.1 32.61H60.51C60.63 32.61 60.76 32.62 60.9 32.64C61.04 32.64 61.18 32.65 61.32 32.67C61.48 32.69 61.62 32.71 61.74 32.73C61.86 32.75 61.98 32.78 62.1 32.82C62.32 32.88 62.5 32.98 62.64 33.12C62.86 33.32 63 33.52 63.06 33.72ZM67.4463 23.37C68.0463 23.07 68.6763 22.86 69.3363 22.74C69.9963 22.6 70.6463 22.57 71.2863 22.65C71.9463 22.71 72.5763 22.88 73.1763 23.16C73.7763 23.42 74.3363 23.8 74.8563 24.3C75.3763 24.82 75.7763 25.39 76.0563 26.01C76.3363 26.63 76.5363 27.32 76.6563 28.08C76.7363 28.6 76.8663 29.08 77.0463 29.52C77.2263 29.96 77.4163 30.4 77.6163 30.84C77.8363 31.28 78.0363 31.72 78.2163 32.16C78.4163 32.6 78.5763 33.06 78.6963 33.54C78.7963 34 78.7563 34.45 78.5763 34.89C78.4163 35.31 78.0763 35.57 77.5563 35.67C77.2563 35.73 76.9663 35.71 76.6863 35.61C76.4263 35.49 76.1863 35.33 75.9663 35.13C75.7463 34.91 75.5463 34.68 75.3663 34.44C75.2063 34.18 75.0563 33.94 74.9163 33.72C74.4563 34.32 73.9563 34.79 73.4163 35.13C72.8763 35.45 72.2263 35.66 71.4663 35.76C70.8263 35.84 70.2163 35.86 69.6363 35.82C69.0563 35.78 68.4363 35.67 67.7763 35.49C66.9163 35.27 66.2063 34.89 65.6463 34.35C65.1063 33.79 64.6863 33.15 64.3863 32.43C64.1063 31.69 63.9563 30.9 63.9363 30.06C63.9163 29.22 64.0163 28.39 64.2363 27.57C64.5163 26.49 64.9363 25.61 65.4963 24.93C66.0563 24.25 66.7063 23.73 67.4463 23.37ZM68.1963 26.88C67.9163 27.16 67.6963 27.49 67.5363 27.87C67.3763 28.25 67.2763 28.65 67.2363 29.07C67.2163 29.49 67.2563 29.91 67.3563 30.33C67.4563 30.75 67.6163 31.12 67.8363 31.44C68.0363 31.72 68.3763 31.96 68.8563 32.16C69.3363 32.34 69.8363 32.45 70.3563 32.49C70.9563 32.53 71.4763 32.37 71.9163 32.01C72.3763 31.65 72.7163 31.2 72.9363 30.66C73.1763 30.1 73.2863 29.51 73.2663 28.89C73.2463 28.25 73.0763 27.67 72.7563 27.15C72.5163 26.77 72.1963 26.49 71.7963 26.31C71.4163 26.13 71.0063 26.04 70.5663 26.04C70.1263 26.02 69.6863 26.09 69.2463 26.25C68.8263 26.39 68.4763 26.6 68.1963 26.88Z" fill="#6F4E37"/>
<path d="M92.3522 24.45C92.5122 24.73 92.5922 25.03 92.5922 25.35C92.6122 25.67 92.5422 25.97 92.3822 26.25C92.2022 26.61 91.9422 26.86 91.6022 27C91.2822 27.12 90.9222 27.13 90.5222 27.03C90.3422 26.99 90.1822 26.92 90.0422 26.82C89.9022 26.72 89.7522 26.62 89.5922 26.52C89.4522 26.4 89.2822 26.29 89.0822 26.19C88.9022 26.09 88.6622 26.02 88.3622 25.98C88.0622 25.94 87.7322 25.94 87.3722 25.98C87.0322 26.02 86.7222 26.1 86.4422 26.22C86.0022 26.44 85.6522 26.78 85.3922 27.24C85.1322 27.68 84.9622 28.16 84.8822 28.68C84.8022 29.18 84.8122 29.69 84.9122 30.21C85.0322 30.73 85.2522 31.17 85.5722 31.53C85.8122 31.81 86.1222 32.04 86.5022 32.22C86.9022 32.4 87.2822 32.51 87.6422 32.55C87.9822 32.59 88.3222 32.59 88.6622 32.55C89.0022 32.49 89.3322 32.41 89.6522 32.31C89.8922 32.21 90.1622 32.08 90.4622 31.92C90.7622 31.74 91.0522 31.63 91.3322 31.59C91.6922 31.59 91.9722 31.69 92.1722 31.89C92.3722 32.07 92.5122 32.3 92.5922 32.58C92.6722 32.84 92.6822 33.12 92.6222 33.42C92.5822 33.72 92.4722 33.98 92.2922 34.2C92.0522 34.5 91.7122 34.79 91.2722 35.07C90.8322 35.33 90.4122 35.52 90.0122 35.64C89.5322 35.8 88.9922 35.89 88.3922 35.91C87.8122 35.93 87.2622 35.91 86.7422 35.85C86.5022 35.81 86.2522 35.76 85.9922 35.7C85.7322 35.64 85.4822 35.57 85.2422 35.49C84.3622 35.17 83.6222 34.72 83.0222 34.14C82.4422 33.54 81.9922 32.87 81.6722 32.13C81.3722 31.39 81.2022 30.6 81.1622 29.76C81.1222 28.92 81.2222 28.09 81.4622 27.27C81.6822 26.49 81.9522 25.83 82.2722 25.29C82.6122 24.75 83.0022 24.31 83.4422 23.97C83.9022 23.61 84.4122 23.33 84.9722 23.13C85.5322 22.91 86.1522 22.72 86.8322 22.56C87.5322 22.42 88.2722 22.42 89.0522 22.56C89.8322 22.7 90.5322 22.96 91.1522 23.34C91.6322 23.6 92.0322 23.97 92.3522 24.45ZM98.9196 22.44C99.5796 22.12 100.27 21.89 100.99 21.75C101.71 21.61 102.42 21.58 103.12 21.66C103.84 21.74 104.53 21.93 105.19 22.23C105.87 22.53 106.49 22.95 107.05 23.49C107.51 23.95 107.91 24.51 108.25 25.17C108.59 25.81 108.84 26.44 109 27.06C109.34 28.16 109.39 29.27 109.15 30.39C108.91 31.51 108.5 32.55 107.92 33.51C107.64 33.95 107.29 34.35 106.87 34.71C106.47 35.05 106.04 35.33 105.58 35.55C104.98 35.83 104.33 36.02 103.63 36.12C102.93 36.24 102.25 36.27 101.59 36.21C100.39 36.15 99.3296 35.85 98.4096 35.31C97.5096 34.77 96.7796 34.08 96.2196 33.24C95.6796 32.4 95.3196 31.45 95.1396 30.39C94.9796 29.31 95.0496 28.21 95.3496 27.09C95.6696 25.89 96.1296 24.92 96.7296 24.18C97.3496 23.42 98.0796 22.84 98.9196 22.44ZM99.8196 26.46C99.5196 26.74 99.2896 27.09 99.1296 27.51C98.9696 27.93 98.8696 28.37 98.8296 28.83C98.7896 29.27 98.8196 29.72 98.9196 30.18C99.0396 30.62 99.2196 31.02 99.4596 31.38C99.6596 31.68 100.02 31.93 100.54 32.13C101.06 32.33 101.6 32.45 102.16 32.49C102.8 32.53 103.36 32.36 103.84 31.98C104.32 31.58 104.68 31.09 104.92 30.51C105.18 29.93 105.3 29.3 105.28 28.62C105.26 27.94 105.08 27.32 104.74 26.76C104.5 26.36 104.16 26.07 103.72 25.89C103.3 25.69 102.85 25.59 102.37 25.59C101.91 25.57 101.45 25.64 100.99 25.8C100.53 25.94 100.14 26.16 99.8196 26.46ZM119.392 23.31C119.732 23.41 119.952 23.6 120.052 23.88C120.152 24.14 120.182 24.42 120.142 24.72C120.022 25.34 119.682 25.72 119.122 25.86C118.802 25.94 118.472 25.98 118.132 25.98C117.812 25.98 117.482 25.99 117.142 26.01V32.94C117.142 33.42 117.112 33.91 117.052 34.41C117.052 34.59 117.002 34.78 116.902 34.98C116.862 35.08 116.832 35.14 116.812 35.16C116.812 35.2 116.792 35.26 116.752 35.34C116.632 35.56 116.472 35.74 116.272 35.88C115.832 36.12 115.362 36.18 114.862 36.06C114.562 36 114.332 35.9 114.172 35.76C113.992 35.62 113.862 35.45 113.782 35.25C113.742 35.15 113.712 35.05 113.692 34.95C113.672 34.85 113.642 34.75 113.602 34.65C113.582 34.55 113.562 34.46 113.542 34.38C113.542 34.28 113.542 34.2 113.542 34.14V32.4C113.542 31.36 113.542 30.28 113.542 29.16C113.562 28.04 113.572 26.96 113.572 25.92C113.112 25.9 112.632 25.89 112.132 25.89C111.652 25.87 111.302 25.75 111.082 25.53C110.962 25.41 110.882 25.26 110.842 25.08C110.802 24.88 110.782 24.68 110.782 24.48C110.802 24.28 110.842 24.1 110.902 23.94C110.962 23.76 111.042 23.63 111.142 23.55C111.402 23.31 111.632 23.18 111.832 23.16C112.052 23.12 112.322 23.09 112.642 23.07C112.682 23.07 112.812 23.07 113.032 23.07C113.272 23.05 113.422 23.04 113.482 23.04C113.502 22.36 113.522 21.68 113.542 21C113.562 20.32 113.622 19.7 113.722 19.14C113.842 18.56 114.012 18.06 114.232 17.64C114.472 17.2 114.832 16.87 115.312 16.65C115.892 16.39 116.552 16.23 117.292 16.17C118.032 16.11 118.702 16.2 119.302 16.44C119.582 16.54 119.852 16.74 120.112 17.04C120.392 17.34 120.522 17.67 120.502 18.03C120.482 18.39 120.412 18.72 120.292 19.02C120.172 19.32 119.912 19.52 119.512 19.62C119.332 19.66 119.142 19.68 118.942 19.68C118.762 19.66 118.572 19.65 118.372 19.65C118.172 19.65 117.982 19.68 117.802 19.74C117.642 19.78 117.502 19.87 117.382 20.01C117.282 20.13 117.212 20.29 117.172 20.49C117.152 20.69 117.132 20.9 117.112 21.12C117.092 21.34 117.082 21.56 117.082 21.78C117.102 21.98 117.112 22.15 117.112 22.29V23.04C117.572 23.08 117.992 23.11 118.372 23.13C118.772 23.15 119.112 23.21 119.392 23.31ZM130.554 23.31C130.894 23.41 131.114 23.6 131.214 23.88C131.314 24.14 131.344 24.42 131.304 24.72C131.184 25.34 130.844 25.72 130.284 25.86C129.964 25.94 129.634 25.98 129.294 25.98C128.974 25.98 128.644 25.99 128.304 26.01V32.94C128.304 33.42 128.274 33.91 128.214 34.41C128.214 34.59 128.164 34.78 128.064 34.98C128.024 35.08 127.994 35.14 127.974 35.16C127.974 35.2 127.954 35.26 127.914 35.34C127.794 35.56 127.634 35.74 127.434 35.88C126.994 36.12 126.524 36.18 126.024 36.06C125.724 36 125.494 35.9 125.334 35.76C125.154 35.62 125.024 35.45 124.944 35.25C124.904 35.15 124.874 35.05 124.854 34.95C124.834 34.85 124.804 34.75 124.764 34.65C124.744 34.55 124.724 34.46 124.704 34.38C124.704 34.28 124.704 34.2 124.704 34.14V32.4C124.704 31.36 124.704 30.28 124.704 29.16C124.724 28.04 124.734 26.96 124.734 25.92C124.274 25.9 123.794 25.89 123.294 25.89C122.814 25.87 122.464 25.75 122.244 25.53C122.124 25.41 122.044 25.26 122.004 25.08C121.964 24.88 121.944 24.68 121.944 24.48C121.964 24.28 122.004 24.1 122.064 23.94C122.124 23.76 122.204 23.63 122.304 23.55C122.564 23.31 122.794 23.18 122.994 23.16C123.214 23.12 123.484 23.09 123.804 23.07C123.844 23.07 123.974 23.07 124.194 23.07C124.434 23.05 124.584 23.04 124.644 23.04C124.664 22.36 124.684 21.68 124.704 21C124.724 20.32 124.784 19.7 124.884 19.14C125.004 18.56 125.174 18.06 125.394 17.64C125.634 17.2 125.994 16.87 126.474 16.65C127.054 16.39 127.714 16.23 128.454 16.17C129.194 16.11 129.864 16.2 130.464 16.44C130.744 16.54 131.014 16.74 131.274 17.04C131.554 17.34 131.684 17.67 131.664 18.03C131.644 18.39 131.574 18.72 131.454 19.02C131.334 19.32 131.074 19.52 130.674 19.62C130.494 19.66 130.304 19.68 130.104 19.68C129.924 19.66 129.734 19.65 129.534 19.65C129.334 19.65 129.144 19.68 128.964 19.74C128.804 19.78 128.664 19.87 128.544 20.01C128.444 20.13 128.374 20.29 128.334 20.49C128.314 20.69 128.294 20.9 128.274 21.12C128.254 21.34 128.244 21.56 128.244 21.78C128.264 21.98 128.274 22.15 128.274 22.29V23.04C128.734 23.08 129.154 23.11 129.534 23.13C129.934 23.15 130.274 23.21 130.554 23.31ZM143.193 31.89C143.433 31.83 143.673 31.79 143.913 31.77C144.173 31.75 144.403 31.78 144.603 31.86C144.823 31.94 145.003 32.08 145.143 32.28C145.283 32.46 145.353 32.72 145.353 33.06C145.353 33.3 145.293 33.53 145.173 33.75C145.053 33.97 144.903 34.17 144.723 34.35C144.543 34.53 144.343 34.69 144.123 34.83C143.903 34.95 143.693 35.05 143.493 35.13C142.913 35.39 142.243 35.59 141.483 35.73C140.743 35.87 139.973 35.92 139.173 35.88C138.093 35.84 137.053 35.63 136.053 35.25C135.073 34.85 134.303 34.2 133.743 33.3C133.223 32.42 132.913 31.44 132.813 30.36C132.713 29.28 132.763 28.26 132.963 27.3C133.183 26.14 133.553 25.2 134.073 24.48C134.613 23.74 135.253 23.15 135.993 22.71C136.893 22.19 137.903 21.92 139.023 21.9C140.143 21.88 141.213 22.1 142.233 22.56C142.913 22.86 143.523 23.27 144.063 23.79C144.603 24.29 145.013 24.9 145.293 25.62C145.373 25.8 145.433 26.02 145.473 26.28C145.533 26.54 145.573 26.82 145.593 27.12C145.613 27.4 145.613 27.68 145.593 27.96C145.573 28.24 145.523 28.49 145.443 28.71C145.323 29.07 145.173 29.35 144.993 29.55C144.813 29.75 144.583 29.9 144.303 30C144.023 30.1 143.683 30.17 143.283 30.21C142.903 30.23 142.443 30.25 141.903 30.27C141.423 30.29 140.973 30.3 140.553 30.3C140.133 30.3 139.703 30.3 139.263 30.3C138.823 30.28 138.363 30.27 137.883 30.27C137.423 30.25 136.903 30.23 136.323 30.21C136.263 30.61 136.313 30.96 136.473 31.26C136.653 31.54 136.893 31.78 137.193 31.98C137.493 32.16 137.833 32.3 138.213 32.4C138.593 32.5 138.963 32.56 139.323 32.58C140.003 32.62 140.653 32.57 141.273 32.43C141.893 32.27 142.533 32.09 143.193 31.89ZM141.903 26.07C141.523 25.63 141.123 25.31 140.703 25.11C140.383 24.97 140.043 24.91 139.683 24.93C139.343 24.93 139.013 24.98 138.693 25.08C138.113 25.22 137.623 25.52 137.223 25.98C137.183 26.02 137.113 26.12 137.013 26.28C136.913 26.42 136.813 26.57 136.713 26.73C136.633 26.89 136.573 27.04 136.533 27.18C136.493 27.32 136.513 27.39 136.593 27.39H142.473C142.453 27.11 142.403 26.88 142.323 26.7C142.243 26.5 142.103 26.29 141.903 26.07ZM158.398 31.89C158.638 31.83 158.878 31.79 159.118 31.77C159.378 31.75 159.608 31.78 159.808 31.86C160.028 31.94 160.208 32.08 160.348 32.28C160.488 32.46 160.558 32.72 160.558 33.06C160.558 33.3 160.498 33.53 160.378 33.75C160.258 33.97 160.108 34.17 159.928 34.35C159.748 34.53 159.548 34.69 159.328 34.83C159.108 34.95 158.898 35.05 158.698 35.13C158.118 35.39 157.448 35.59 156.688 35.73C155.948 35.87 155.178 35.92 154.378 35.88C153.298 35.84 152.258 35.63 151.258 35.25C150.278 34.85 149.508 34.2 148.948 33.3C148.428 32.42 148.118 31.44 148.018 30.36C147.918 29.28 147.968 28.26 148.168 27.3C148.388 26.14 148.758 25.2 149.278 24.48C149.818 23.74 150.458 23.15 151.198 22.71C152.098 22.19 153.108 21.92 154.228 21.9C155.348 21.88 156.418 22.1 157.438 22.56C158.118 22.86 158.728 23.27 159.268 23.79C159.808 24.29 160.218 24.9 160.498 25.62C160.578 25.8 160.638 26.02 160.678 26.28C160.738 26.54 160.778 26.82 160.798 27.12C160.818 27.4 160.818 27.68 160.798 27.96C160.778 28.24 160.728 28.49 160.648 28.71C160.528 29.07 160.378 29.35 160.198 29.55C160.018 29.75 159.788 29.9 159.508 30C159.228 30.1 158.888 30.17 158.488 30.21C158.108 30.23 157.648 30.25 157.108 30.27C156.628 30.29 156.178 30.3 155.758 30.3C155.338 30.3 154.908 30.3 154.468 30.3C154.028 30.28 153.568 30.27 153.088 30.27C152.628 30.25 152.108 30.23 151.528 30.21C151.468 30.61 151.518 30.96 151.678 31.26C151.858 31.54 152.098 31.78 152.398 31.98C152.698 32.16 153.038 32.3 153.418 32.4C153.798 32.5 154.168 32.56 154.528 32.58C155.208 32.62 155.858 32.57 156.478 32.43C157.098 32.27 157.738 32.09 158.398 31.89ZM157.108 26.07C156.728 25.63 156.328 25.31 155.908 25.11C155.588 24.97 155.248 24.91 154.888 24.93C154.548 24.93 154.218 24.98 153.898 25.08C153.318 25.22 152.828 25.52 152.428 25.98C152.388 26.02 152.318 26.12 152.218 26.28C152.118 26.42 152.018 26.57 151.918 26.73C151.838 26.89 151.778 27.04 151.738 27.18C151.698 27.32 151.718 27.39 151.798 27.39H157.678C157.658 27.11 157.608 26.88 157.528 26.7C157.448 26.5 157.308 26.29 157.108 26.07Z" fill="black"/>
<g filter="url(#filter0_g_4_36)">
<path d="M6 13H35L29.7273 46H11.2727L6 13Z" fill="#B39F7A"/>
<path d="M34.8828 13.0996L29.6426 45.9004H11.3574L6.11719 13.0996H34.8828Z" stroke="#271B10" stroke-width="0.2"/>
</g>
<g filter="url(#filter1_g_4_36)">
<ellipse cx="20.5" cy="28" rx="7.5" ry="6" fill="#B39F7A"/>
<path d="M20.5 22.1504C24.5923 22.1504 27.8496 24.7986 27.8496 28C27.8496 31.2014 24.5923 33.8496 20.5 33.8496C16.4077 33.8496 13.1504 31.2014 13.1504 28C13.1504 24.7986 16.4077 22.1504 20.5 22.1504Z" stroke="#6F4E37" stroke-width="0.3"/>
</g>
<g filter="url(#filter2_g_4_36)">
<ellipse cx="20.5" cy="28" rx="6.5" ry="5" fill="#6F4E37"/>
</g>
<g filter="url(#filter3_g_4_36)">
<path d="M5.26923 7H35.7308L37 13H4L5.26923 7Z" fill="#B39F7A"/>
<path d="M35.6895 7.0498L36.9385 12.9502H4.06152L5.31055 7.0498H35.6895Z" stroke="#271B10" stroke-width="0.1"/>
</g>
<g filter="url(#filter4_g_4_36)">
<path d="M10.2778 4H30.7222L32 7H9L10.2778 4Z" fill="#B39F7A"/>
<path d="M30.6885 4.0498L31.9248 6.9502H9.0752L10.3115 4.0498H30.6885Z" stroke="#271B10" stroke-width="0.1"/>
</g>
<defs>
<filter id="filter0_g_4_36" x="2" y="9" width="37" height="41" filterUnits="userSpaceOnUse" color-interpolation-filters="sRGB">
<feFlood flood-opacity="0" result="BackgroundImageFix"/>
<feBlend mode="normal" in="SourceGraphic" in2="BackgroundImageFix" result="shape"/>
<feTurbulence type="fractalNoise" baseFrequency="2 2" numOctaves="3" seed="1743" />
<feDisplacementMap in="shape" scale="8" xChannelSelector="R" yChannelSelector="G" result="displacedImage" width="100%" height="100%" />
<feMerge result="effect1_texture_4_36">
<feMergeNode in="displacedImage"/>
</feMerge>
</filter>
<filter id="filter1_g_4_36" x="9" y="18" width="23" height="20" filterUnits="userSpaceOnUse" color-interpolation-filters="sRGB">
<feFlood flood-opacity="0" result="BackgroundImageFix"/>
<feBlend mode="normal" in="SourceGraphic" in2="BackgroundImageFix" result="shape"/>
<feTurbulence type="fractalNoise" baseFrequency="0.25 0.25" numOctaves="3" seed="8972" />
<feDisplacementMap in="shape" scale="8" xChannelSelector="R" yChannelSelector="G" result="displacedImage" width="100%" height="100%" />
<feMerge result="effect1_texture_4_36">
<feMergeNode in="displacedImage"/>
</feMerge>
</filter>
<filter id="filter2_g_4_36" x="10" y="19" width="21" height="18" filterUnits="userSpaceOnUse" color-interpolation-filters="sRGB">
<feFlood flood-opacity="0" result="BackgroundImageFix"/>
<feBlend mode="normal" in="SourceGraphic" in2="BackgroundImageFix" result="shape"/>
<feTurbulence type="fractalNoise" baseFrequency="0.25 0.25" numOctaves="3" seed="8972" />
<feDisplacementMap in="shape" scale="8" xChannelSelector="R" yChannelSelector="G" result="displacedImage" width="100%" height="100%" />
<feMerge result="effect1_texture_4_36">
<feMergeNode in="displacedImage"/>
</feMerge>
</filter>
<filter id="filter3_g_4_36" x="0" y="3" width="41" height="14" filterUnits="userSpaceOnUse" color-interpolation-filters="sRGB">
<feFlood flood-opacity="0" result="BackgroundImageFix"/>
<feBlend mode="normal" in="SourceGraphic" in2="BackgroundImageFix" result="shape"/>
<feTurbulence type="fractalNoise" baseFrequency="2 2" numOctaves="3" seed="1743" />
<feDisplacementMap in="shape" scale="8" xChannelSelector="R" yChannelSelector="G" result="displacedImage" width="100%" height="100%" />
<feMerge result="effect1_texture_4_36">
<feMergeNode in="displacedImage"/>
</feMerge>
</filter>
<filter id="filter4_g_4_36" x="5" y="0" width="31" height="11" filterUnits="userSpaceOnUse" color-interpolation-filters="sRGB">
<feFlood flood-opacity="0" result="BackgroundImageFix"/>
<feBlend mode="normal" in="SourceGraphic" in2="BackgroundImageFix" result="shape"/>
<feTurbulence type="fractalNoise" baseFrequency="2 2" numOctaves="3" seed="1743" />
<feDisplacementMap in="shape" scale="8" xChannelSelector="R" yChannelSelector="G" result="displacedImage" width="100%" height="100%" />
<feMerge result="effect1_texture_4_36">
<feMergeNode in="displacedImage"/>
</feMerge>
</filter>
</defs>
</svg>
